<?xml version="1.0" standalone="no"?>
<!DOCTYPE svg PUBLIC "-//W3C//DTD SVG 20010904//EN"
 "http://www.w3.org/TR/2001/REC-SVG-20010904/DTD/svg10.dtd">
<svg version="1.0" xmlns="http://www.w3.org/2000/svg"
 width="1707.000000pt" height="251.000000pt" viewBox="0 0 1707.000000 251.000000"
 preserveAspectRatio="xMidYMid meet">
<metadata>
Created by potrace 1.15, written by Peter Selinger 2001-2017
</metadata>
 <rect width="100%" height="100%" fill="#ffffff"/>
<g transform="translate(0.000000,251.000000) scale(0.100000,-0.100000)"
fill="#252830" stroke="none">
<path d="M0 2405 l0 -105 278 5 c152 3 684 10 1182 15 498 6 1270 15 1715 20
446 5 1195 14 1665 20 470 6 1229 15 1685 20 457 5 1213 14 1680 20 468 6
1224 15 1680 20 457 5 1215 14 1685 20 470 6 1217 15 1660 20 443 5 1224 15
1735 21 512 6 1184 14 1495 18 311 4 -3266 8 -7947 9 l-8513 2 0 -105z"/>
<path d="M16440 2092 c-338 -208 -1240 -759 -2005 -1226 -764 -467 -1394 -853
-1400 -857 -5 -5 881 -9 2013 -9 l2022 0 0 1235 c0 679 -3 1235 -7 1234 -5 0
-285 -170 -623 -377z"/>
<path d="M0 1095 l0 -1095 6494 0 6493 0 -3 23 c-3 19 187 165 1427 1094
l1431 1073 -7921 0 -7921 0 0 -1095z m3162 476 c41 -11 90 -26 110 -34 l35
-15 -20 -93 c-11 -52 -21 -95 -22 -97 -2 -2 -25 8 -52 21 -157 80 -331 84
-480 12 -152 -75 -243 -237 -243 -434 0 -149 70 -272 182 -321 61 -27 198 -33
259 -12 37 13 37 13 58 115 11 56 24 117 27 135 l7 32 -122 0 c-138 0 -129 -8
-105 99 l16 71 228 0 c212 0 228 -1 224 -17 -2 -10 -29 -135 -59 -278 -35
-167 -61 -264 -70 -271 -9 -6 -52 -24 -98 -39 -67 -23 -104 -29 -208 -33 -146
-5 -212 6 -301 51 -166 82 -252 241 -251 462 0 133 18 209 75 325 78 160 241
286 418 324 100 22 301 20 392 -3z m1064 -571 l90 -570 -106 0 -107 0 -17 128
c-10 70 -20 135 -22 145 -5 15 -24 17 -222 17 l-217 -1 -77 -142 -76 -142
-121 -3 -122 -3 15 23 c7 13 152 259 321 548 169 289 313 535 321 548 14 21
21 22 132 22 l118 0 90 -570z m769 393 c31 -98 67 -212 80 -253 14 -41 27 -94
31 -118 l7 -43 29 53 c17 29 112 162 212 295 l181 242 133 0 c86 1 132 -3 132
-10 0 -12 -228 -1085 -236 -1111 -5 -16 -19 -18 -100 -18 -52 0 -94 2 -94 4 0
15 182 851 190 871 17 45 11 40 -40 -38 -27 -42 -124 -176 -215 -297 l-165
-220 -68 0 -68 0 -73 234 c-40 129 -78 267 -85 306 l-12 73 -11 -74 c-7 -41
-49 -251 -95 -466 l-83 -393 -96 0 -96 0 27 127 c15 71 69 327 121 571 l93
442 123 0 122 0 56 -177z m1700 140 c-3 -21 -11 -59 -17 -85 l-10 -48 -208 0
c-190 0 -209 -2 -214 -17 -3 -10 -17 -74 -31 -143 -14 -69 -28 -133 -31 -142
-5 -17 9 -18 191 -18 l197 0 -6 -22 c-3 -13 -11 -51 -18 -85 l-11 -63 -196 0
-196 0 -29 -132 c-15 -73 -30 -143 -33 -155 l-5 -23 222 0 222 0 -7 -37 c-3
-21 -11 -59 -17 -86 l-10 -47 -327 0 -328 0 27 127 c15 71 69 327 121 571 l93
442 314 0 314 0 -7 -37z m970 -5 c22 -159 95 -790 95 -820 0 -43 14 -50 27
-15 4 13 112 216 238 450 l230 427 117 0 117 0 -86 -147 c-47 -82 -196 -338
-330 -571 l-245 -423 -111 3 -111 3 -77 555 c-43 305 -78 561 -79 568 0 9 27
12 104 12 l105 0 6 -42z m1591 -528 l90 -570 -106 0 -107 0 -17 128 c-10 70
-20 135 -22 145 -5 15 -24 17 -222 17 l-217 -1 -77 -142 -76 -142 -121 -3
-122 -3 15 23 c7 13 152 259 321 548 169 289 313 535 321 548 14 21 21 22 132
22 l118 0 90 -570z m664 566 c0 -3 -34 -162 -75 -354 -46 -215 -75 -372 -75
-408 0 -72 24 -128 73 -171 43 -38 85 -47 173 -40 113 9 184 77 228 216 13 42
56 230 96 419 l74 342 103 0 c58 0 103 -4 103 -9 0 -14 -148 -693 -166 -765
-41 -157 -128 -281 -235 -335 -83 -41 -154 -54 -283 -50 -102 4 -117 7 -178
37 -80 39 -138 101 -170 181 -19 47 -22 74 -21 166 0 98 8 147 72 435 39 179
71 328 71 333 0 4 47 7 105 7 58 0 105 -2 105 -4z m1160 -8 c0 -7 -45 -224
-100 -482 -55 -258 -100 -471 -100 -473 0 -2 97 -3 215 -3 198 0 215 -1 215
-17 -1 -24 -27 -143 -32 -149 -3 -2 -149 -3 -324 -2 l-320 3 120 568 121 567
102 0 c76 0 103 -3 103 -12z m1330 5 c0 -4 -8 -43 -17 -85 l-16 -78 -164 0
c-90 0 -163 -4 -163 -8 0 -5 -45 -221 -100 -481 -55 -259 -100 -474 -100 -476
0 -3 -48 -5 -106 -5 -105 0 -106 0 -101 22 14 55 197 927 197 937 0 8 -49 11
-160 11 -97 0 -160 4 -160 10 0 5 7 43 17 85 l16 75 429 0 c235 0 428 -3 428
-7z m-5210 -630 c0 -5 -4 -24 -9 -43 -5 -19 -12 -47 -15 -62 l-6 -28 -224 0
-223 0 15 70 15 70 224 0 c123 0 223 -3 223 -7z"/>
<path d="M3970 1349 c-1 -8 -58 -115 -129 -239 l-128 -225 160 -3 c88 -1 162
-1 164 1 4 5 -56 470 -63 476 -2 2 -4 -2 -4 -10z"/>
<path d="M9000 1349 c-1 -8 -58 -115 -129 -239 l-128 -225 160 -3 c88 -1 162
-1 164 1 4 5 -56 470 -63 476 -2 2 -4 -2 -4 -10z"/>
</g>
</svg>
